<svg width="196" height="92" viewBox="0 0 196 92" fill="none" xmlns="http://www.w3.org/2000/svg">
<path d="M4.18106 68V66.675H5.23105C5.48105 66.675 5.69772 66.6417 5.88105 66.575C6.08105 66.4917 6.23105 66.3333 6.33105 66.1C6.44772 65.8667 6.50605 65.5167 6.50605 65.05V51.675H4.50605C4.00605 51.675 3.61439 51.75 3.33105 51.9C3.04772 52.0333 2.83939 52.2333 2.70605 52.5C2.57272 52.7667 2.48105 53.0833 2.43105 53.45L2.25605 55H0.581055L0.706055 50.15H16.2811L16.4061 55H14.7311L14.5561 53.45C14.5227 53.0833 14.4311 52.7667 14.2811 52.5C14.1477 52.2333 13.9394 52.0333 13.6561 51.9C13.3727 51.75 12.9811 51.675 12.4811 51.675H10.4811V65.05C10.4811 65.5167 10.5311 65.8667 10.6311 66.1C10.7477 66.3333 10.9061 66.4917 11.1061 66.575C11.3061 66.6417 11.5227 66.675 11.7561 66.675H12.8061V68H4.18106Z" fill="white"/>
<path d="M23.1141 68.25C21.8141 68.25 20.8141 67.85 20.1141 67.05C19.4141 66.2333 19.0641 64.9833 19.0641 63.3V57.7C19.0641 57.2167 19.0057 56.85 18.8891 56.6C18.7724 56.3333 18.5891 56.1583 18.3391 56.075C18.0891 55.975 17.7641 55.925 17.3641 55.925H17.3141V54.6H22.8641V62.6C22.8641 63.3167 22.9141 63.9417 23.0141 64.475C23.1307 64.9917 23.3307 65.4 23.6141 65.7C23.8974 65.9833 24.2807 66.125 24.7641 66.125C25.2974 66.125 25.7307 65.975 26.0641 65.675C26.3974 65.3583 26.6391 64.9167 26.7891 64.35C26.9557 63.7667 27.0391 63.0917 27.0391 62.325V57.525C27.0391 57.0417 26.9557 56.6917 26.7891 56.475C26.6224 56.2417 26.4057 56.0917 26.1391 56.025C25.8724 55.9583 25.5724 55.925 25.2391 55.925H25.1641V54.6H30.8391V65.1C30.8391 65.5833 30.9057 65.9417 31.0391 66.175C31.1891 66.3917 31.3891 66.5333 31.6391 66.6C31.9057 66.65 32.1974 66.675 32.5141 66.675H32.7141V68H27.7391L27.1891 66.225H27.0641C26.8141 66.6583 26.5391 67.0083 26.2391 67.275C25.9557 67.5417 25.6474 67.75 25.3141 67.9C24.9807 68.0333 24.6307 68.125 24.2641 68.175C23.8974 68.225 23.5141 68.25 23.1141 68.25Z" fill="white"/>
<path d="M37.1889 68V66.675H38.2389C38.4889 66.675 38.7055 66.6417 38.8889 66.575C39.0889 66.4917 39.2389 66.3333 39.3389 66.1C39.4555 65.8667 39.5139 65.5167 39.5139 65.05V51.675H37.5139C37.0139 51.675 36.6222 51.75 36.3389 51.9C36.0555 52.0333 35.8472 52.2333 35.7139 52.5C35.5805 52.7667 35.4889 53.0833 35.4389 53.45L35.2639 55H33.5889L33.7139 50.15H49.2889L49.4139 55H47.7389L47.5639 53.45C47.5305 53.0833 47.4389 52.7667 47.2889 52.5C47.1555 52.2333 46.9472 52.0333 46.6639 51.9C46.3805 51.75 45.9889 51.675 45.4889 51.675H43.4889V65.05C43.4889 65.5167 43.5389 65.8667 43.6389 66.1C43.7555 66.3333 43.9139 66.4917 44.1139 66.575C44.3139 66.6417 44.5305 66.675 44.7639 66.675H45.8139V68H37.1889Z" fill="white"/>
<path d="M50.1719 68V66.675H50.2469C50.6302 66.675 50.9635 66.6333 51.2469 66.55C51.5302 66.4667 51.7552 66.3 51.9219 66.05C52.0885 65.7833 52.1719 65.3917 52.1719 64.875V57.625C52.1719 57.125 52.0969 56.7583 51.9469 56.525C51.7969 56.275 51.5885 56.1167 51.3219 56.05C51.0552 55.9667 50.7385 55.925 50.3719 55.925H50.2969V54.6H55.3469L55.8469 56.55H55.9719C56.1885 56.05 56.4385 55.6333 56.7219 55.3C57.0052 54.9667 57.3635 54.7167 57.7969 54.55C58.2469 54.3833 58.8135 54.3 59.4969 54.3C60.4802 54.3 61.2052 54.475 61.6719 54.825C62.1385 55.175 62.3719 55.675 62.3719 56.325C62.3719 57.0917 62.0885 57.6917 61.5219 58.125C60.9719 58.5417 60.1969 58.75 59.1969 58.75C59.1969 58.2833 59.1552 57.9 59.0719 57.6C59.0052 57.3 58.8802 57.075 58.6969 56.925C58.5302 56.7583 58.2885 56.675 57.9719 56.675C57.5385 56.675 57.1885 56.825 56.9219 57.125C56.6552 57.425 56.4552 57.8 56.3219 58.25C56.1885 58.6833 56.0969 59.125 56.0469 59.575C55.9969 60.025 55.9719 60.3917 55.9719 60.675V65C55.9719 65.4833 56.0469 65.85 56.1969 66.1C56.3469 66.3333 56.5552 66.4917 56.8219 66.575C57.0885 66.6417 57.3885 66.675 57.7219 66.675H58.5219V68H50.1719Z" fill="white"/>
<path d="M67.3195 68.25C66.5862 68.25 65.9195 68.1083 65.3195 67.825C64.7362 67.525 64.2695 67.075 63.9195 66.475C63.5695 65.8583 63.3945 65.0917 63.3945 64.175C63.3945 62.825 63.8612 61.825 64.7945 61.175C65.7279 60.525 67.1279 60.1667 68.9945 60.1L71.0445 60.025V58.65C71.0445 58.0833 71.0112 57.5917 70.9445 57.175C70.8779 56.7417 70.7362 56.4083 70.5195 56.175C70.3029 55.925 69.9612 55.8 69.4945 55.8C69.0779 55.8 68.7445 55.9167 68.4945 56.15C68.2445 56.3833 68.0695 56.7083 67.9695 57.125C67.8695 57.525 67.8195 57.9833 67.8195 58.5C66.7029 58.5 65.8612 58.375 65.2945 58.125C64.7279 57.875 64.4445 57.4417 64.4445 56.825C64.4445 56.2083 64.6779 55.7167 65.1445 55.35C65.6112 54.9833 66.2362 54.7167 67.0195 54.55C67.8029 54.3667 68.6612 54.275 69.5945 54.275C71.3445 54.275 72.6529 54.5917 73.5195 55.225C74.4029 55.8583 74.8445 56.9583 74.8445 58.525V64.9C74.8445 65.35 74.8862 65.7083 74.9695 65.975C75.0695 66.225 75.2279 66.4083 75.4445 66.525C75.6779 66.625 75.9779 66.675 76.3445 66.675H76.4445V68H71.7945L71.2695 66.275H71.0445C70.6779 66.725 70.3279 67.1 69.9945 67.4C69.6779 67.6833 69.3112 67.8917 68.8945 68.025C68.4779 68.175 67.9529 68.25 67.3195 68.25ZM68.6945 66.425C69.1779 66.425 69.5945 66.3 69.9445 66.05C70.2945 65.7833 70.5612 65.4083 70.7445 64.925C70.9445 64.4417 71.0445 63.875 71.0445 63.225V61.35L69.9195 61.425C69.2529 61.4583 68.7279 61.5917 68.3445 61.825C67.9612 62.0417 67.6862 62.3583 67.5195 62.775C67.3529 63.175 67.2695 63.675 67.2695 64.275C67.2695 64.7417 67.3195 65.1417 67.4195 65.475C67.5195 65.7917 67.6779 66.0333 67.8945 66.2C68.1112 66.35 68.3779 66.425 68.6945 66.425Z" fill="white"/>
<path d="M87.1604 68.25C86.1937 68.25 85.402 68.05 84.7854 67.65C84.1854 67.2333 83.702 66.7 83.3354 66.05H83.1104L82.4104 68H77.6604V66.675H77.8354C78.152 66.675 78.452 66.6333 78.7354 66.55C79.0354 66.4667 79.277 66.3 79.4604 66.05C79.6437 65.8 79.7354 65.425 79.7354 64.925V52C79.7354 51.5167 79.6437 51.1583 79.4604 50.925C79.277 50.6917 79.0354 50.5333 78.7354 50.45C78.452 50.3667 78.127 50.325 77.7604 50.325H77.6604V49H83.5354V53.275C83.5354 53.525 83.527 53.8417 83.5104 54.225C83.4937 54.5917 83.4687 54.9667 83.4353 55.35C83.402 55.7333 83.3687 56.05 83.3354 56.3H83.5104C83.877 55.6833 84.352 55.2 84.9353 54.85C85.5353 54.4833 86.3104 54.3 87.2604 54.3C88.8937 54.3 90.1354 54.8583 90.9854 55.975C91.852 57.075 92.2854 58.8333 92.2854 61.25C92.2854 62.8667 92.0853 64.1917 91.6853 65.225C91.302 66.2583 90.727 67.025 89.9604 67.525C89.2104 68.0083 88.277 68.25 87.1604 68.25ZM86.1104 66.375C86.6604 66.375 87.102 66.175 87.4353 65.775C87.7853 65.375 88.0353 64.7917 88.1853 64.025C88.352 63.2583 88.4353 62.325 88.4353 61.225C88.4353 60.0917 88.352 59.15 88.1853 58.4C88.0353 57.65 87.7853 57.0917 87.4353 56.725C87.102 56.3417 86.652 56.15 86.0854 56.15C85.102 56.15 84.427 56.5667 84.0603 57.4C83.7103 58.2333 83.5354 59.5167 83.5354 61.25C83.5354 62.35 83.6104 63.2833 83.7604 64.05C83.9104 64.8 84.1687 65.375 84.5354 65.775C84.9187 66.175 85.4437 66.375 86.1104 66.375Z" fill="white"/>
<path d="M98.5207 68.25C97.7874 68.25 97.1207 68.1083 96.5207 67.825C95.9374 67.525 95.4707 67.075 95.1207 66.475C94.7707 65.8583 94.5957 65.0917 94.5957 64.175C94.5957 62.825 95.0624 61.825 95.9957 61.175C96.929 60.525 98.329 60.1667 100.196 60.1L102.246 60.025V58.65C102.246 58.0833 102.212 57.5917 102.146 57.175C102.079 56.7417 101.937 56.4083 101.721 56.175C101.504 55.925 101.162 55.8 100.696 55.8C100.279 55.8 99.9457 55.9167 99.6957 56.15C99.4457 56.3833 99.2707 56.7083 99.1707 57.125C99.0707 57.525 99.0207 57.9833 99.0207 58.5C97.904 58.5 97.0624 58.375 96.4957 58.125C95.929 57.875 95.6457 57.4417 95.6457 56.825C95.6457 56.2083 95.879 55.7167 96.3457 55.35C96.8124 54.9833 97.4374 54.7167 98.2207 54.55C99.004 54.3667 99.8624 54.275 100.796 54.275C102.546 54.275 103.854 54.5917 104.721 55.225C105.604 55.8583 106.046 56.9583 106.046 58.525V64.9C106.046 65.35 106.087 65.7083 106.171 65.975C106.271 66.225 106.429 66.4083 106.646 66.525C106.879 66.625 107.179 66.675 107.546 66.675H107.646V68H102.996L102.471 66.275H102.246C101.879 66.725 101.529 67.1 101.196 67.4C100.879 67.6833 100.512 67.8917 100.096 68.025C99.679 68.175 99.154 68.25 98.5207 68.25ZM99.8957 66.425C100.379 66.425 100.796 66.3 101.146 66.05C101.496 65.7833 101.762 65.4083 101.946 64.925C102.146 64.4417 102.246 63.875 102.246 63.225V61.35L101.121 61.425C100.454 61.4583 99.929 61.5917 99.5457 61.825C99.1624 62.0417 98.8874 62.3583 98.7207 62.775C98.554 63.175 98.4707 63.675 98.4707 64.275C98.4707 64.7417 98.5207 65.1417 98.6207 65.475C98.7207 65.7917 98.879 66.0333 99.0957 66.2C99.3124 66.35 99.579 66.425 99.8957 66.425Z" fill="white"/>
<path d="M107.937 74V72.45H108.112C108.728 72.45 109.245 72.3167 109.662 72.05C110.078 71.7833 110.395 71.325 110.612 70.675C110.828 70.025 110.937 69.1333 110.937 68V57.575C110.937 57.0917 110.845 56.7333 110.662 56.5C110.478 56.2667 110.237 56.1167 109.937 56.05C109.637 55.9667 109.303 55.925 108.937 55.925H108.862V54.6H114.737V68.2C114.737 69.6833 114.462 70.85 113.912 71.7C113.378 72.55 112.637 73.1417 111.687 73.475C110.753 73.825 109.67 74 108.437 74H107.937ZM112.737 52.35C112.137 52.35 111.628 52.2083 111.212 51.925C110.812 51.625 110.612 51.1667 110.612 50.55C110.612 49.9167 110.82 49.4583 111.237 49.175C111.653 48.8917 112.162 48.75 112.762 48.75C113.328 48.75 113.82 48.8917 114.237 49.175C114.67 49.4583 114.887 49.9167 114.887 50.55C114.887 51.1667 114.67 51.625 114.237 51.925C113.82 52.2083 113.32 52.35 112.737 52.35Z" fill="white"/>
<path d="M124.68 68.25C122.68 68.25 121.105 67.675 119.955 66.525C118.805 65.3583 118.23 63.6 118.23 61.25C118.23 58.9 118.78 57.15 119.88 56C120.98 54.85 122.605 54.275 124.755 54.275C126.755 54.275 128.33 54.85 129.48 56C130.63 57.15 131.205 58.9 131.205 61.25C131.205 63.6 130.646 65.3583 129.53 66.525C128.43 67.675 126.813 68.25 124.68 68.25ZM124.73 66.675C125.38 66.675 125.888 66.475 126.255 66.075C126.638 65.6583 126.913 65.05 127.08 64.25C127.246 63.4333 127.33 62.4333 127.33 61.25C127.33 60.05 127.246 59.0583 127.08 58.275C126.913 57.475 126.638 56.875 126.255 56.475C125.871 56.075 125.363 55.875 124.73 55.875C124.08 55.875 123.563 56.075 123.18 56.475C122.796 56.875 122.521 57.475 122.355 58.275C122.188 59.0583 122.105 60.05 122.105 61.25C122.105 62.4333 122.188 63.4333 122.355 64.25C122.521 65.05 122.796 65.6583 123.18 66.075C123.58 66.475 124.096 66.675 124.73 66.675Z" fill="white"/>
<path d="M131.862 74V72.55H132.312C132.845 72.55 133.353 72.4083 133.837 72.125C134.32 71.8417 134.712 71.375 135.012 70.725C135.312 70.075 135.462 69.1917 135.462 68.075V53C135.462 52.55 135.403 52.2167 135.287 52C135.17 51.7833 135.012 51.6417 134.812 51.575C134.628 51.5083 134.42 51.475 134.187 51.475H133.137V50.15H141.762V51.475H140.712C140.478 51.475 140.262 51.5167 140.062 51.6C139.862 51.6667 139.703 51.8167 139.587 52.05C139.47 52.2667 139.412 52.6167 139.412 53.1V68.05C139.412 69.1833 139.228 70.1333 138.862 70.9C138.495 71.6667 137.995 72.275 137.362 72.725C136.745 73.175 136.037 73.5 135.237 73.7C134.437 73.9 133.612 74 132.762 74H131.862Z" fill="white"/>
<path d="M148.773 68.25C147.473 68.25 146.473 67.85 145.773 67.05C145.073 66.2333 144.723 64.9833 144.723 63.3V57.7C144.723 57.2167 144.665 56.85 144.548 56.6C144.432 56.3333 144.248 56.1583 143.998 56.075C143.748 55.975 143.423 55.925 143.023 55.925H142.973V54.6H148.523V62.6C148.523 63.3167 148.573 63.9417 148.673 64.475C148.79 64.9917 148.99 65.4 149.273 65.7C149.557 65.9833 149.94 66.125 150.423 66.125C150.957 66.125 151.39 65.975 151.723 65.675C152.057 65.3583 152.298 64.9167 152.448 64.35C152.615 63.7667 152.698 63.0917 152.698 62.325V57.525C152.698 57.0417 152.615 56.6917 152.448 56.475C152.282 56.2417 152.065 56.0917 151.798 56.025C151.532 55.9583 151.232 55.925 150.898 55.925H150.823V54.6H156.498V65.1C156.498 65.5833 156.565 65.9417 156.698 66.175C156.848 66.3917 157.048 66.5333 157.298 66.6C157.565 66.65 157.857 66.675 158.173 66.675H158.373V68H153.398L152.848 66.225H152.723C152.473 66.6583 152.198 67.0083 151.898 67.275C151.615 67.5417 151.307 67.75 150.973 67.9C150.64 68.0333 150.29 68.125 149.923 68.175C149.557 68.225 149.173 68.25 148.773 68.25Z" fill="white"/>
<path d="M164.773 68.25C163.573 68.25 162.598 68.125 161.848 67.875C161.115 67.6083 160.581 67.2583 160.248 66.825C159.915 66.375 159.748 65.875 159.748 65.325C159.748 64.775 159.881 64.3667 160.148 64.1C160.415 63.8333 160.731 63.6583 161.098 63.575C161.465 63.475 161.79 63.425 162.073 63.425C162.073 64.1083 162.181 64.7083 162.398 65.225C162.631 65.725 162.948 66.1083 163.348 66.375C163.765 66.6417 164.24 66.775 164.773 66.775C165.64 66.775 166.265 66.6083 166.648 66.275C167.048 65.9417 167.248 65.5417 167.248 65.075C167.248 64.7083 167.156 64.3917 166.973 64.125C166.79 63.8417 166.473 63.5833 166.023 63.35C165.573 63.1 164.956 62.8417 164.173 62.575C163.273 62.2583 162.515 61.9167 161.898 61.55C161.281 61.1667 160.806 60.7167 160.473 60.2C160.156 59.6667 159.998 59.025 159.998 58.275C159.998 56.9417 160.49 55.95 161.473 55.3C162.456 54.6333 163.756 54.3 165.373 54.3C166.423 54.3 167.265 54.4167 167.898 54.65C168.548 54.8667 169.015 55.1583 169.298 55.525C169.598 55.875 169.748 56.2417 169.748 56.625C169.748 57.1917 169.548 57.625 169.148 57.925C168.765 58.2083 168.115 58.35 167.198 58.35C167.198 57.5167 167.015 56.875 166.648 56.425C166.281 55.9583 165.731 55.725 164.998 55.725C164.648 55.725 164.315 55.7833 163.998 55.9C163.698 56.0167 163.448 56.1917 163.248 56.425C163.065 56.6417 162.973 56.925 162.973 57.275C162.973 57.625 163.065 57.9333 163.248 58.2C163.448 58.4667 163.798 58.725 164.298 58.975C164.798 59.225 165.498 59.5083 166.398 59.825C167.148 60.075 167.806 60.3833 168.373 60.75C168.94 61.1 169.381 61.5333 169.698 62.05C170.031 62.55 170.198 63.15 170.198 63.85C170.198 65.2333 169.723 66.3167 168.773 67.1C167.84 67.8667 166.506 68.25 164.773 68.25Z" fill="white"/>
<path d="M177.28 68.25C176.163 68.25 175.272 67.9583 174.605 67.375C173.938 66.7917 173.605 65.7667 173.605 64.3V56.3H171.73V55.025C172.263 55.025 172.738 54.9167 173.155 54.7C173.588 54.4833 173.93 54.2417 174.18 53.975C174.43 53.7083 174.655 53.375 174.855 52.975C175.055 52.5583 175.213 52.0667 175.33 51.5H177.405V54.6H180.605V56.3H177.405V64.05C177.405 64.8 177.53 65.35 177.78 65.7C178.047 66.05 178.472 66.225 179.055 66.225C179.388 66.225 179.697 66.2083 179.98 66.175C180.28 66.125 180.563 66.0667 180.83 66V67.625C180.563 67.7417 180.122 67.875 179.505 68.025C178.905 68.175 178.163 68.25 177.28 68.25Z" fill="white"/>
<path d="M188.962 68.25C186.962 68.25 185.387 67.675 184.237 66.525C183.087 65.3583 182.512 63.6 182.512 61.25C182.512 58.9 183.062 57.15 184.162 56C185.262 54.85 186.887 54.275 189.037 54.275C191.037 54.275 192.612 54.85 193.762 56C194.912 57.15 195.487 58.9 195.487 61.25C195.487 63.6 194.929 65.3583 193.812 66.525C192.712 67.675 191.095 68.25 188.962 68.25ZM189.012 66.675C189.662 66.675 190.17 66.475 190.537 66.075C190.92 65.6583 191.195 65.05 191.362 64.25C191.529 63.4333 191.612 62.4333 191.612 61.25C191.612 60.05 191.529 59.0583 191.362 58.275C191.195 57.475 190.92 56.875 190.537 56.475C190.154 56.075 189.645 55.875 189.012 55.875C188.362 55.875 187.845 56.075 187.462 56.475C187.079 56.875 186.804 57.475 186.637 58.275C186.47 59.0583 186.387 60.05 186.387 61.25C186.387 62.4333 186.47 63.4333 186.637 64.25C186.804 65.05 187.079 65.6583 187.462 66.075C187.862 66.475 188.379 66.675 189.012 66.675Z" fill="white"/>
<path d="M66 0V19.5L88 39V20L66 0Z" fill="#333333"/>
<path d="M88 0.5V20L110 39.5V20.5L88 0.5Z" fill="#F1CD5F"/>
<path d="M110 1V20.5L132 40V21L110 1Z" fill="#DB763F"/>
<path d="M30.9422 89.156C30.3442 89.156 29.7896 89.0433 29.2782 88.818C28.7669 88.584 28.3249 88.2763 27.9522 87.895L28.6022 87.141C28.9056 87.4617 29.2609 87.7217 29.6682 87.921C30.0842 88.1117 30.5132 88.207 30.9552 88.207C31.5186 88.207 31.9562 88.0813 32.2682 87.83C32.5802 87.57 32.7362 87.232 32.7362 86.816C32.7362 86.5213 32.6712 86.2873 32.5412 86.114C32.4199 85.9407 32.2509 85.7933 32.0342 85.672C31.8262 85.5507 31.5879 85.4293 31.3192 85.308L30.0972 84.775C29.8286 84.6623 29.5599 84.515 29.2912 84.333C29.0312 84.151 28.8102 83.917 28.6282 83.631C28.4549 83.345 28.3682 82.994 28.3682 82.578C28.3682 82.1447 28.4809 81.759 28.7062 81.421C28.9402 81.0743 29.2609 80.8057 29.6682 80.615C30.0756 80.4157 30.5349 80.316 31.0462 80.316C31.5576 80.316 32.0299 80.4157 32.4632 80.615C32.8966 80.8057 33.2649 81.057 33.5682 81.369L32.9832 82.071C32.7232 81.8197 32.4329 81.6247 32.1122 81.486C31.8002 81.3387 31.4449 81.265 31.0462 81.265C30.5696 81.265 30.1839 81.3777 29.8892 81.603C29.6032 81.8283 29.4602 82.1317 29.4602 82.513C29.4602 82.7817 29.5296 83.007 29.6682 83.189C29.8156 83.3623 29.9976 83.5053 30.2142 83.618C30.4309 83.7307 30.6519 83.8347 30.8772 83.93L32.0862 84.45C32.4156 84.5887 32.7102 84.7577 32.9702 84.957C33.2389 85.1477 33.4512 85.386 33.6072 85.672C33.7632 85.9493 33.8412 86.3003 33.8412 86.725C33.8412 87.1757 33.7242 87.5873 33.4902 87.96C33.2562 88.324 32.9226 88.6143 32.4892 88.831C32.0559 89.0477 31.5402 89.156 30.9422 89.156Z" fill="white"/>
<path d="M35.5206 89V80.472H36.5996V89H35.5206Z" fill="white"/>
<path d="M38.9356 89V80.472H40.0536L43.1346 85.828L44.0576 87.596H44.1096C44.0836 87.1627 44.0533 86.7163 44.0186 86.257C43.9926 85.789 43.9796 85.3297 43.9796 84.879V80.472H45.0066V89H43.8886L40.7946 83.631L39.8716 81.876H39.8196C39.8543 82.3007 39.8846 82.7383 39.9106 83.189C39.9453 83.6397 39.9626 84.0903 39.9626 84.541V89H38.9356Z" fill="white"/>
<path d="M49.9551 89V80.472H51.0341V84.047H54.9991V80.472H56.0911V89H54.9991V84.983H51.0341V89H49.9551Z" fill="white"/>
<path d="M61.4646 89.156C60.8839 89.156 60.3596 89.039 59.8916 88.805C59.4323 88.571 59.0683 88.1853 58.7996 87.648C58.5309 87.1107 58.3966 86.387 58.3966 85.477V80.472H59.4756V85.503C59.4756 86.1877 59.5623 86.7293 59.7356 87.128C59.9176 87.518 60.1559 87.7953 60.4506 87.96C60.7539 88.1247 61.0919 88.207 61.4646 88.207C61.8459 88.207 62.1883 88.1247 62.4916 87.96C62.7949 87.7953 63.0333 87.518 63.2066 87.128C63.3886 86.7293 63.4796 86.1877 63.4796 85.503V80.472H64.5196V85.477C64.5196 86.387 64.3853 87.1107 64.1166 87.648C63.8479 88.1853 63.4839 88.571 63.0246 88.805C62.5653 89.039 62.0453 89.156 61.4646 89.156Z" fill="white"/>
<path d="M66.8145 89V80.472H68.1145L69.7525 85.022C69.8565 85.3167 69.9562 85.6157 70.0515 85.919C70.1555 86.2137 70.2595 86.5083 70.3635 86.803H70.4155C70.5195 86.5083 70.6149 86.2137 70.7015 85.919C70.7969 85.6157 70.8965 85.3167 71.0005 85.022L72.6125 80.472H73.9255V89H72.9115V84.307C72.9115 83.9257 72.9289 83.5053 72.9635 83.046C72.9982 82.578 73.0285 82.1577 73.0545 81.785H73.0025L72.3265 83.722L70.7145 88.142H69.9995L68.3875 83.722L67.7115 81.785H67.6595C67.6855 82.1577 67.7115 82.578 67.7375 83.046C67.7722 83.5053 67.7895 83.9257 67.7895 84.307V89H66.8145Z" fill="white"/>
<path d="M79.4058 89.156C78.6952 89.156 78.0625 88.974 77.5078 88.61C76.9618 88.246 76.5328 87.7303 76.2208 87.063C75.9175 86.3957 75.7658 85.607 75.7658 84.697C75.7658 83.787 75.9175 83.007 76.2208 82.357C76.5328 81.6983 76.9618 81.1957 77.5078 80.849C78.0625 80.4937 78.6952 80.316 79.4058 80.316C80.1252 80.316 80.7578 80.4937 81.3038 80.849C81.8498 81.1957 82.2788 81.6983 82.5908 82.357C82.9028 83.007 83.0588 83.787 83.0588 84.697C83.0588 85.607 82.9028 86.3957 82.5908 87.063C82.2788 87.7303 81.8498 88.246 81.3038 88.61C80.7578 88.974 80.1252 89.156 79.4058 89.156ZM79.4058 88.207C79.9172 88.207 80.3592 88.064 80.7318 87.778C81.1132 87.4833 81.4078 87.076 81.6158 86.556C81.8238 86.0273 81.9278 85.4077 81.9278 84.697C81.9278 83.6397 81.6982 82.8033 81.2388 82.188C80.7795 81.5727 80.1685 81.265 79.4058 81.265C78.6432 81.265 78.0322 81.5727 77.5728 82.188C77.1135 82.8033 76.8838 83.6397 76.8838 84.697C76.8838 85.4077 76.9878 86.0273 77.1958 86.556C77.4038 87.076 77.6985 87.4833 78.0798 87.778C78.4612 88.064 78.9032 88.207 79.4058 88.207Z" fill="white"/>
<path d="M84.5936 91.21L84.3336 90.586C84.7063 90.4213 84.9966 90.2003 85.2046 89.923C85.4126 89.6543 85.5123 89.3467 85.5036 89C85.4863 89.0087 85.4646 89.013 85.4386 89.013C85.4126 89.013 85.391 89.013 85.3736 89.013C85.1656 89.013 84.9836 88.9523 84.8276 88.831C84.6803 88.701 84.6066 88.5147 84.6066 88.272C84.6066 88.038 84.6846 87.856 84.8406 87.726C84.9966 87.5873 85.183 87.518 85.3996 87.518C85.677 87.518 85.8936 87.6307 86.0496 87.856C86.2143 88.0813 86.2966 88.389 86.2966 88.779C86.2966 89.3337 86.145 89.819 85.8416 90.235C85.5383 90.6597 85.1223 90.9847 84.5936 91.21Z" fill="white"/>
<path d="M93.0985 89.156C92.5005 89.156 91.9458 89.0433 91.4345 88.818C90.9232 88.584 90.4812 88.2763 90.1085 87.895L90.7585 87.141C91.0618 87.4617 91.4172 87.7217 91.8245 87.921C92.2405 88.1117 92.6695 88.207 93.1115 88.207C93.6748 88.207 94.1125 88.0813 94.4245 87.83C94.7365 87.57 94.8925 87.232 94.8925 86.816C94.8925 86.5213 94.8275 86.2873 94.6975 86.114C94.5762 85.9407 94.4072 85.7933 94.1905 85.672C93.9825 85.5507 93.7442 85.4293 93.4755 85.308L92.2535 84.775C91.9848 84.6623 91.7162 84.515 91.4475 84.333C91.1875 84.151 90.9665 83.917 90.7845 83.631C90.6112 83.345 90.5245 82.994 90.5245 82.578C90.5245 82.1447 90.6372 81.759 90.8625 81.421C91.0965 81.0743 91.4172 80.8057 91.8245 80.615C92.2318 80.4157 92.6912 80.316 93.2025 80.316C93.7138 80.316 94.1862 80.4157 94.6195 80.615C95.0528 80.8057 95.4212 81.057 95.7245 81.369L95.1395 82.071C94.8795 81.8197 94.5892 81.6247 94.2685 81.486C93.9565 81.3387 93.6012 81.265 93.2025 81.265C92.7258 81.265 92.3402 81.3777 92.0455 81.603C91.7595 81.8283 91.6165 82.1317 91.6165 82.513C91.6165 82.7817 91.6858 83.007 91.8245 83.189C91.9718 83.3623 92.1538 83.5053 92.3705 83.618C92.5872 83.7307 92.8082 83.8347 93.0335 83.93L94.2425 84.45C94.5718 84.5887 94.8665 84.7577 95.1265 84.957C95.3952 85.1477 95.6075 85.386 95.7635 85.672C95.9195 85.9493 95.9975 86.3003 95.9975 86.725C95.9975 87.1757 95.8805 87.5873 95.6465 87.96C95.4125 88.324 95.0788 88.6143 94.6455 88.831C94.2122 89.0477 93.6965 89.156 93.0985 89.156Z" fill="white"/>
<path d="M97.6768 89V80.472H98.7558V89H97.6768Z" fill="white"/>
<path d="M101.092 89V80.472H102.21L105.291 85.828L106.214 87.596H106.266C106.24 87.1627 106.21 86.7163 106.175 86.257C106.149 85.789 106.136 85.3297 106.136 84.879V80.472H107.163V89H106.045L102.951 83.631L102.028 81.876H101.976C102.011 82.3007 102.041 82.7383 102.067 83.189C102.102 83.6397 102.119 84.0903 102.119 84.541V89H101.092Z" fill="white"/>
<path d="M115.465 89.156C114.72 89.156 114.057 88.9827 113.476 88.636C112.896 88.2807 112.441 87.7737 112.111 87.115C111.782 86.4563 111.617 85.6633 111.617 84.736C111.617 83.8173 111.786 83.0287 112.124 82.37C112.462 81.7113 112.926 81.2043 113.515 80.849C114.105 80.4937 114.776 80.316 115.53 80.316C116.12 80.316 116.614 80.4287 117.012 80.654C117.42 80.8707 117.745 81.109 117.987 81.369L117.389 82.071C117.173 81.8457 116.921 81.655 116.635 81.499C116.349 81.343 115.99 81.265 115.556 81.265C114.984 81.265 114.486 81.408 114.061 81.694C113.637 81.9713 113.307 82.3657 113.073 82.877C112.848 83.3883 112.735 83.9993 112.735 84.71C112.735 85.7847 112.978 86.6383 113.463 87.271C113.957 87.895 114.659 88.207 115.569 88.207C115.873 88.207 116.163 88.1637 116.44 88.077C116.718 87.9817 116.939 87.856 117.103 87.7V85.477H115.296V84.58H118.091V88.168C117.823 88.454 117.459 88.6923 116.999 88.883C116.549 89.065 116.037 89.156 115.465 89.156Z" fill="white"/>
<path d="M120.135 89V80.472H121.214V84.047H125.179V80.472H126.271V89H125.179V84.983H121.214V89H120.135Z" fill="white"/>
<path d="M131.761 89.156C131.051 89.156 130.418 88.974 129.863 88.61C129.317 88.246 128.888 87.7303 128.576 87.063C128.273 86.3957 128.121 85.607 128.121 84.697C128.121 83.787 128.273 83.007 128.576 82.357C128.888 81.6983 129.317 81.1957 129.863 80.849C130.418 80.4937 131.051 80.316 131.761 80.316C132.481 80.316 133.113 80.4937 133.659 80.849C134.205 81.1957 134.634 81.6983 134.946 82.357C135.258 83.007 135.414 83.787 135.414 84.697C135.414 85.607 135.258 86.3957 134.946 87.063C134.634 87.7303 134.205 88.246 133.659 88.61C133.113 88.974 132.481 89.156 131.761 89.156ZM131.761 88.207C132.273 88.207 132.715 88.064 133.087 87.778C133.469 87.4833 133.763 87.076 133.971 86.556C134.179 86.0273 134.283 85.4077 134.283 84.697C134.283 83.6397 134.054 82.8033 133.594 82.188C133.135 81.5727 132.524 81.265 131.761 81.265C130.999 81.265 130.388 81.5727 129.928 82.188C129.469 82.8033 129.239 83.6397 129.239 84.697C129.239 85.4077 129.343 86.0273 129.551 86.556C129.759 87.076 130.054 87.4833 130.435 87.778C130.817 88.064 131.259 88.207 131.761 88.207Z" fill="white"/>
<path d="M139.614 89.156C139.016 89.156 138.461 89.0433 137.95 88.818C137.439 88.584 136.997 88.2763 136.624 87.895L137.274 87.141C137.577 87.4617 137.933 87.7217 138.34 87.921C138.756 88.1117 139.185 88.207 139.627 88.207C140.19 88.207 140.628 88.0813 140.94 87.83C141.252 87.57 141.408 87.232 141.408 86.816C141.408 86.5213 141.343 86.2873 141.213 86.114C141.092 85.9407 140.923 85.7933 140.706 85.672C140.498 85.5507 140.26 85.4293 139.991 85.308L138.769 84.775C138.5 84.6623 138.232 84.515 137.963 84.333C137.703 84.151 137.482 83.917 137.3 83.631C137.127 83.345 137.04 82.994 137.04 82.578C137.04 82.1447 137.153 81.759 137.378 81.421C137.612 81.0743 137.933 80.8057 138.34 80.615C138.747 80.4157 139.207 80.316 139.718 80.316C140.229 80.316 140.702 80.4157 141.135 80.615C141.568 80.8057 141.937 81.057 142.24 81.369L141.655 82.071C141.395 81.8197 141.105 81.6247 140.784 81.486C140.472 81.3387 140.117 81.265 139.718 81.265C139.241 81.265 138.856 81.3777 138.561 81.603C138.275 81.8283 138.132 82.1317 138.132 82.513C138.132 82.7817 138.201 83.007 138.34 83.189C138.487 83.3623 138.669 83.5053 138.886 83.618C139.103 83.7307 139.324 83.8347 139.549 83.93L140.758 84.45C141.087 84.5887 141.382 84.7577 141.642 84.957C141.911 85.1477 142.123 85.386 142.279 85.672C142.435 85.9493 142.513 86.3003 142.513 86.725C142.513 87.1757 142.396 87.5873 142.162 87.96C141.928 88.324 141.594 88.6143 141.161 88.831C140.728 89.0477 140.212 89.156 139.614 89.156Z" fill="white"/>
<path d="M145.707 89V81.382H143.133V80.472H149.373V81.382H146.799V89H145.707Z" fill="white"/>
<path d="M150.908 89V80.472H151.987V89H150.908Z" fill="white"/>
<path d="M154.323 89V80.472H155.441L158.522 85.828L159.445 87.596H159.497C159.471 87.1627 159.441 86.7163 159.406 86.257C159.38 85.789 159.367 85.3297 159.367 84.879V80.472H160.394V89H159.276L156.182 83.631L155.259 81.876H155.207C155.242 82.3007 155.272 82.7383 155.298 83.189C155.333 83.6397 155.35 84.0903 155.35 84.541V89H154.323Z" fill="white"/>
<path d="M166.094 89.156C165.349 89.156 164.686 88.9827 164.105 88.636C163.525 88.2807 163.07 87.7737 162.74 87.115C162.411 86.4563 162.246 85.6633 162.246 84.736C162.246 83.8173 162.415 83.0287 162.753 82.37C163.091 81.7113 163.555 81.2043 164.144 80.849C164.734 80.4937 165.405 80.316 166.159 80.316C166.749 80.316 167.243 80.4287 167.641 80.654C168.049 80.8707 168.374 81.109 168.616 81.369L168.018 82.071C167.802 81.8457 167.55 81.655 167.264 81.499C166.978 81.343 166.619 81.265 166.185 81.265C165.613 81.265 165.115 81.408 164.69 81.694C164.266 81.9713 163.936 82.3657 163.702 82.877C163.477 83.3883 163.364 83.9993 163.364 84.71C163.364 85.7847 163.607 86.6383 164.092 87.271C164.586 87.895 165.288 88.207 166.198 88.207C166.502 88.207 166.792 88.1637 167.069 88.077C167.347 87.9817 167.568 87.856 167.732 87.7V85.477H165.925V84.58H168.72V88.168C168.452 88.454 168.088 88.6923 167.628 88.883C167.178 89.065 166.666 89.156 166.094 89.156Z" fill="white"/>
</svg>
